<svg width="18" height="18" viewBox="0 0 18 18" fill="none" xmlns="http://www.w3.org/2000/svg">
<path d="M16.23 12.2617L13.69 11.9717C13.08 11.9017 12.48 12.1117 12.05 12.5417L10.21 14.3817C7.38 12.9417 5.06 10.6317 3.62 7.79172L5.47 5.94172C5.9 5.51172 6.11 4.91172 6.04 4.30172L5.75 1.78172C5.63 0.771719 4.78 0.0117188 3.76 0.0117188H2.03C0.900003 0.0117188 -0.0399975 0.951719 0.0300025 2.08172C0.560003 10.6217 7.39 17.4417 15.92 17.9717C17.05 18.0417 17.99 17.1017 17.99 15.9717V14.2417C18 13.2317 17.24 12.3817 16.23 12.2617Z" fill="#FDFDFD"/>
</svg>
